<svg width="120" height="24" viewBox="0 0 120 24" fill="none" xmlns="http://www.w3.org/2000/svg">
<path d="M5.25026 19.8648C4.6976 19.8102 4.11731 19.6735 3.48175 19.5096C2.76329 19.3183 2.15537 19.0724 1.68561 18.7718C1.21585 18.4713 0.801355 18.0341 0.497393 17.4876C0.165798 16.9684 0 16.3126 0 15.5749V8.93502C0 5.902 2.3488 4.37183 7.07403 4.37183C8.28988 4.37183 9.89259 4.53577 11.9374 4.89099V7.62344C10.1137 7.18625 8.51094 6.96765 7.1293 6.96765C6.54901 6.96765 6.10688 6.99498 5.77528 7.0223C5.44369 7.04963 5.11209 7.1316 4.7805 7.26822C4.03441 7.51414 3.67518 8.06063 3.67518 8.90769V15.3016C3.67518 16.6679 4.9463 17.351 7.46089 17.351C8.53858 17.351 10.0584 17.1324 12.0203 16.6679V19.4276C10.3347 19.7555 8.70438 19.9468 7.07403 19.9468C6.38321 19.9468 5.77528 19.9195 5.25026 19.8648Z" fill="#093845"/>
<path d="M17.9616 19.8648C17.5195 19.8102 17.0221 19.7282 16.497 19.5916C15.9444 19.4276 15.4746 19.209 15.143 18.9358C14.7838 18.6352 14.5075 18.2527 14.2588 17.7062C14.0101 17.187 13.8995 16.5859 13.8995 15.8481V12.5145C13.8995 11.7768 14.0101 11.121 14.2588 10.5472C14.5075 10.0007 14.8114 9.56349 15.1707 9.2356C15.5022 8.96235 15.9444 8.74376 16.4694 8.57981C17.0221 8.38854 17.5471 8.27924 18.0721 8.25191C18.68 8.22459 19.2051 8.19727 19.7025 8.19727C20.4209 8.19727 21.0012 8.22459 21.4433 8.25191C21.8855 8.27924 22.3552 8.38854 22.8802 8.55248C23.4329 8.71643 23.9027 8.96235 24.2619 9.26292C24.6211 9.56349 24.9251 9.97336 25.1738 10.5198C25.4225 11.0663 25.533 11.7495 25.533 12.5145V15.8481C25.533 16.5586 25.4225 17.1597 25.2014 17.6789C24.9803 18.198 24.6764 18.6079 24.3172 18.9085C24.0132 19.1817 23.5711 19.373 23.046 19.5369C22.4934 19.7009 21.9684 19.8102 21.4433 19.8648C20.9736 19.9195 20.4209 19.9468 19.7577 19.9468C19.0116 19.9468 18.4313 19.9195 17.9616 19.8648ZM21.167 17.6789C21.4986 17.5696 21.7197 17.4056 21.8578 17.2144C21.996 16.9958 22.0513 16.6679 22.0513 16.258V11.9954C22.0513 11.3669 21.8855 10.9297 21.5539 10.6838C21.2223 10.4379 20.6143 10.3013 19.7025 10.3013C18.7906 10.3013 18.1826 10.4379 17.851 10.6838C17.5195 10.9297 17.3537 11.3669 17.3537 11.9954V16.258C17.3537 16.6679 17.4089 16.9958 17.5471 17.2144C17.6853 17.4329 17.9063 17.5969 18.2379 17.6789C18.5695 17.7882 19.0669 17.8428 19.7025 17.8428C20.338 17.8155 20.8354 17.7882 21.167 17.6789Z" fill="#093845"/>
<path d="M29.5671 19.6463C28.9316 19.455 28.4894 19.0725 28.2131 18.5533C27.9644 18.0068 27.8262 17.1598 27.8262 16.0121V11.6129C27.8262 10.3833 28.1855 9.48159 28.9039 8.98975C29.6224 8.47058 30.783 8.22466 32.3857 8.22466C33.1318 8.22466 33.7397 8.27931 34.1542 8.36128C34.5963 8.44326 34.9279 8.6072 35.2042 8.79847C35.4806 9.01707 35.7569 9.31764 36.0332 9.72751V3.44287H39.4597V19.7283H36.1438V18.444C35.8674 18.8812 35.6187 19.2091 35.37 19.4004C35.149 19.5917 34.8174 19.7283 34.4029 19.8103C33.9884 19.9195 33.3528 19.9742 32.5238 19.9742C31.1975 19.9469 30.2027 19.8376 29.5671 19.6463ZM35.1213 17.7063C35.4806 17.6243 35.7293 17.4877 35.8398 17.2691C35.978 17.0505 36.0332 16.7499 36.0332 16.3127V11.8042C36.0332 11.4216 35.978 11.1211 35.8398 10.9025C35.7016 10.6839 35.4806 10.5472 35.1213 10.4379C34.7897 10.356 34.2647 10.3013 33.6015 10.3013C32.8831 10.3013 32.358 10.356 32.0541 10.4379C31.7501 10.5199 31.529 10.6839 31.4185 10.8751C31.308 11.0937 31.2527 11.4216 31.2527 11.9135V16.2307C31.2527 16.6679 31.308 16.9958 31.4185 17.2144C31.529 17.433 31.7225 17.597 32.0264 17.6789C32.3304 17.7609 32.8002 17.8156 33.4081 17.8156C34.2094 17.8156 34.7621 17.7882 35.1213 17.7063Z" fill="#093845"/>
<path d="M42.1678 16.2853V12.2413C42.1678 10.8204 42.6376 9.80943 43.5495 9.18097C44.4614 8.5525 45.8707 8.22461 47.805 8.22461C49.6011 8.22461 50.9275 8.52518 51.7841 9.15364C52.6131 9.75478 53.0552 10.7931 53.0552 12.2686V15.0284H45.6496V16.0394C45.6496 16.6952 45.8983 17.1597 46.3681 17.433C46.8378 17.7062 47.6944 17.8428 48.9103 17.8428C50.0432 17.8428 51.3143 17.6789 52.7236 17.351V19.5096C51.3143 19.8102 49.8222 19.9468 48.2471 19.9468C44.1851 19.9468 42.1678 18.7172 42.1678 16.2853ZM49.7393 13.061V11.4216C49.7393 11.039 49.5735 10.7658 49.2695 10.5745C48.9655 10.3832 48.4405 10.3013 47.7221 10.3013C46.8931 10.3013 46.3404 10.3832 46.0641 10.5745C45.7601 10.7658 45.622 11.0664 45.622 11.4216V13.061H49.7393Z" fill="#093845"/>
<path d="M63.0031 4.80908H69.1928C70.6574 4.80908 71.7903 4.91838 72.564 5.13698C73.3654 5.35557 73.9181 5.68347 74.2497 6.14798C74.5812 6.6125 74.747 7.24096 74.747 8.0607V9.91876C74.747 10.3286 74.5812 10.7385 74.2497 11.0937C73.9181 11.4763 73.5036 11.7222 73.0614 11.8588V11.9681C73.6694 12.0228 74.1944 12.2687 74.6918 12.7332C75.1892 13.1704 75.4379 13.6622 75.4379 14.2087V16.5313C75.4379 17.7609 74.9405 18.6353 73.9457 19.1271C72.9509 19.6463 71.4311 19.8922 69.3586 19.8922H63.0031V4.80908ZM69.1928 10.9571C69.7731 10.9571 70.2152 10.9024 70.4916 10.8205C70.7679 10.7385 70.9613 10.5746 71.0719 10.356C71.1824 10.1374 71.2377 9.83679 71.2377 9.42692V8.68916C71.2377 8.33394 71.1824 8.0607 71.0995 7.89675C71.0166 7.70548 70.8232 7.59618 70.5192 7.51421C70.2152 7.43223 69.7731 7.40491 69.1376 7.40491H66.6782V10.9571H69.1928ZM69.3034 17.3237C70.1876 17.3237 70.8232 17.2144 71.21 17.0231C71.5969 16.8319 71.7627 16.504 71.7627 16.0395V14.8372C71.7627 14.2907 71.6245 13.8808 71.3206 13.6622C71.0166 13.4163 70.5192 13.307 69.7731 13.307H66.6782V17.3237H69.3034Z" fill="#1DD1A1"/>
<path d="M81.5448 20.0836C81.1027 20.0289 80.6053 19.9469 80.0803 19.8103C79.5276 19.6464 79.0579 19.4278 78.7263 19.1545C78.3947 18.854 78.0907 18.4714 77.842 17.9249C77.5933 17.4058 77.4828 16.8046 77.4828 16.0669V12.7059C77.4828 11.9682 77.5933 11.3124 77.842 10.7386C78.0907 10.1921 78.3947 9.7549 78.7539 9.427C79.0855 9.15376 79.5276 8.93516 80.0527 8.77121C80.6053 8.57994 81.1303 8.47065 81.6554 8.44332C82.2633 8.416 82.7883 8.38867 83.2857 8.38867C84.0042 8.38867 84.5845 8.416 85.0266 8.44332C85.4687 8.47065 85.9385 8.57994 86.4635 8.74389C87.0162 8.90784 87.4859 9.15376 87.8451 9.45433C88.2044 9.7549 88.5083 10.1648 88.757 10.7113C89.0057 11.2577 89.1163 11.9409 89.1163 12.7059V16.0395C89.1163 16.75 89.0057 17.3511 88.7847 17.8703C88.5636 18.3894 88.2596 18.7993 87.9004 19.0999C87.5964 19.3731 87.1543 19.5644 86.6293 19.7283C86.0766 19.8923 85.5516 20.0016 85.0266 20.0562C84.5568 20.1109 84.0042 20.1382 83.341 20.1382C82.5673 20.1382 81.987 20.1109 81.5448 20.0836ZM84.7503 17.8703C85.0819 17.761 85.3029 17.597 85.4411 17.4058C85.5792 17.1872 85.6345 16.8593 85.6345 16.4494V12.1868C85.6345 11.5583 85.4687 11.1211 85.1371 10.8752C84.8055 10.6293 84.1976 10.4927 83.2857 10.4927C82.3738 10.4927 81.7659 10.6293 81.4343 10.8752C81.1027 11.1211 80.9369 11.5583 80.9369 12.1868V16.4494C80.9369 16.8593 80.9922 17.1872 81.1303 17.4058C81.2685 17.6244 81.4896 17.7883 81.8212 17.8703C82.1528 17.9796 82.6501 18.0342 83.2857 18.0342C83.9213 18.0342 84.4187 17.9796 84.7503 17.8703Z" fill="#1DD1A1"/>
<path d="M94.9467 14.1267L90.7188 8.63452H94.698L96.9362 11.8588L99.2021 8.63452H103.181L98.9258 14.1267L103.43 19.8922H99.4508L96.9639 16.34L94.5045 19.8922H90.5254L94.9467 14.1267Z" fill="#1DD1A1"/>
<path d="M119.955 23.9909H58.8582V0H119.955V23.9909ZM60.7372 22.1329H118.076V1.85807H60.7372V22.1329Z" fill="#093845"/>
<path d="M115.976 17.7063H106.221V19.9196H115.976V17.7063Z" fill="#093845"/>
</svg>
